<?xml version="1.0"?>
<svg xmlns="http://www.w3.org/2000/svg" id="Layer_1" data-name="Layer 1" viewBox="0 0 512 512" width="512px" height="512px" class=""><g><path d="M392.76,433.57c14.53,26.65-4.77,59.14-35.12,59.14H154.36c-30.35,0-49.65-32.49-35.12-59.14l78.75-144.5a39.979,39.979,0,0,0,4.87-19.14V198.26H309.14v71.67a39.979,39.979,0,0,0,4.87,19.14Z" style="fill:#EEEEEE" data-original="#FEDB41" class="" data-old_color="#FEDB41"/><polygon points="330.45 155.26 330.45 198.26 309.14 198.26 202.86 198.26 181.55 198.26 181.55 155.26 330.45 155.26" style="fill:#F2B200" data-original="#00ACEA" class="active-path" data-old_color="#00ACEA"/><path d="M291.12,84.81a22.745,22.745,0,1,1-22.74,22.75A22.747,22.747,0,0,1,291.12,84.81Z" style="fill:#F2B200" data-original="#00EFD1" class="" data-old_color="#00EFD1"/><path d="M306.41,374.51c4.23,21.81-9.24,50.93-49.13,67.09a4.487,4.487,0,0,1-1.28.26,4.552,4.552,0,0,1-1.29-.26c-39.76-15.78-53.36-45.02-49.12-67.09,2.82-14.88,13.21-24.37,26.68-24.37,7.57,0,15.65,3.08,23.73,9.11,7.95-5.77,16.16-8.85,23.6-8.85C293.07,350.4,303.46,359.89,306.41,374.51Z" style="fill:#D7443E" data-original="#D7443E" class="" data-old_color="#D7443E"/><circle cx="257.85" cy="36.97" r="17.68" style="fill:#F2B200" data-original="#00EFD1" class="" data-old_color="#00EFD1"/><path d="M206.68,77.26A19.235,19.235,0,1,1,187.44,96.5,19.241,19.241,0,0,1,206.68,77.26Z" style="fill:#F2B200" data-original="#00EFD1" class="" data-old_color="#00EFD1"/></g> </svg>
