<?xml version="1.0"?>
<svg xmlns="http://www.w3.org/2000/svg" height="512px" viewBox="0 -4 445.06055 445" width="512px" class=""><g><path d="m255.375 216.230469-7.398438-23.800781c-.589843-1.878907-2.066406-3.351563-3.953124-3.9375l-23.808594-7.402344-38.800782-12.058594c-2.179687-.679688-3.785156-2.535156-4.144531-4.792969-.355469-2.257812.601563-4.519531 2.464844-5.835937l53.53125-37.863282c1.609375-1.136718 2.558594-2.996093 2.53125-4.96875l-.839844-65.550781c-.035156-2.285156 1.234375-4.386719 3.273438-5.425781 2.035156-1.039062 4.484375-.832031 6.316406.539062l52.539063 39.207032c1.582031 1.183594 3.648437 1.507812 5.519531.871094l62.078125-21.050782c2.164062-.734375 4.558594-.175781 6.171875 1.441406 1.617187 1.613282 2.175781 4.007813 1.441406 6.167969l-21.050781 62.082031c-.640625 1.871094-.3125 3.933594.867187 5.519532l39.210938 52.539062c1.367187 1.832032 1.578125 4.277344.542969 6.3125-1.039063 2.035156-3.136719 3.304688-5.421876 3.277344l-65.558593-.839844c-1.976563-.027344-3.835938.925782-4.972657 2.539063l-37.859374 53.523437c-1.316407 1.863282-3.578126 2.820313-5.832032 2.464844-2.253906-.359375-4.113281-1.964844-4.789062-4.148438zm0 0" fill="#fedb41" data-original="#FEDB41" class="" style="fill:#EEEEEE" data-old_color="#fedb41"/><path d="m247.976562 192.429688 7.398438 23.800781-140.378906 140.378906-35.152344-35.136719 140.371094-140.382812 23.808594 7.402344c1.886718.585937 3.363281 2.058593 3.953124 3.9375zm0 0" fill="#00acea" data-original="#00ACEA" class="" style="fill:#F2B200" data-old_color="#00acea"/><path d="m114.996094 356.609375-72.570313 72.570313c-9.707031 9.703124-25.433593 9.703124-35.140625 0h-.011718c-9.699219-9.707032-9.699219-25.441407 0-35.148438l72.570312-72.558594zm0 0" fill="#00efd1" data-original="#00EFD1" class="active-path" style="fill:#EEEEEE" data-old_color="#00efd1"/><g fill="#00acea"><path d="m155.59375 80.367188-9.773438-2.699219 2.703126-9.777344c1.144531-4.25-1.355469-8.628906-5.601563-9.796875-4.242187-1.167969-8.632813 1.308594-9.824219 5.546875l-2.699218 9.769531-9.773438-2.699218c-4.253906-1.167969-8.652344 1.332031-9.828125 5.585937s1.316406 8.65625 5.570313 9.839844l9.777343 2.699219-2.703125 9.769531c-1.175781 4.257812 1.324219 8.664062 5.582032 9.839843 4.257812 1.179688 8.664062-1.320312 9.839843-5.578124l2.703125-9.777344 9.773438 2.699218c2.757812.773438 5.722656.011719 7.765625-1.996093 2.042969-2.007813 2.855469-4.957031 2.128906-7.730469-.722656-2.773438-2.875-4.945312-5.640625-5.695312zm0 0" data-original="#00ACEA" class="" style="fill:#F2B200" data-old_color="#00ACEA"/><path d="m369.824219 343.050781-5.003907-1.382812 1.378907-5c1.171875-4.261719-1.332031-8.664063-5.589844-9.835938-4.261719-1.175781-8.664063 1.328125-9.835937 5.585938l-1.378907 4.992187-5-1.378906c-4.257812-1.175781-8.664062 1.324219-9.839843 5.582031-1.175782 4.261719 1.328124 8.664063 5.585937 9.839844l5.007813 1.382813-1.382813 5.007812c-.785156 2.765625-.03125 5.738281 1.980469 7.789062 2.011718 2.054688 4.96875 2.871094 7.75 2.140626 2.777344-.730469 4.953125-2.898438 5.695312-5.671876l1.378906-5.007812 5 1.378906c4.257813 1.175782 8.664063-1.324218 9.839844-5.582031 1.179688-4.257813-1.320312-8.664063-5.578125-9.839844zm0 0" data-original="#00ACEA" class="" style="fill:#F2B200" data-old_color="#00ACEA"/><path d="m439.121094 122.230469-9.300782-2.566407 2.566407-9.300781c.789062-2.765625.035156-5.738281-1.976563-7.792969-2.011718-2.054687-4.972656-2.871093-7.753906-2.136718-2.78125.730468-4.953125 2.898437-5.691406 5.679687l-2.566406 9.296875-9.300782-2.5625c-4.242187-1.128906-8.601562 1.375-9.769531 5.605469-1.167969 4.234375 1.296875 8.613281 5.515625 9.820313l9.292969 2.5625-2.566407 9.300781c-1.175781 4.257812 1.320313 8.664062 5.578126 9.839843 4.261718 1.175782 8.667968-1.320312 9.84375-5.578124l2.566406-9.300782 9.304687 2.5625c2.765625.789063 5.742188.035156 7.796875-1.976562 2.054688-2.011719 2.867188-4.972656 2.136719-7.753906-.734375-2.777344-2.902344-4.953126-5.679687-5.691407zm0 0" data-original="#00ACEA" class="" style="fill:#F2B200" data-old_color="#00ACEA"/><path d="m325.402344 18.480469-6.582032-1.816407 1.816407-6.578124c1.128906-4.242188-1.371094-8.601563-5.605469-9.769532-4.230469-1.164062-8.613281 1.296875-9.816406 5.519532l-1.820313 6.574218-6.574219-1.8125c-2.765624-.789062-5.742187-.035156-7.796874 1.980469-2.050782 2.011719-2.867188 4.96875-2.136719 7.75.734375 2.78125 2.902343 4.953125 5.679687 5.695313l6.570313 1.808593-1.8125 6.578125c-1.175781 4.257813 1.320312 8.664063 5.578125 9.84375 4.261718 1.175782 8.667968-1.324218 9.84375-5.582031l1.816406-6.582031 6.585938 1.8125c4.242187 1.128906 8.601562-1.371094 9.769531-5.601563 1.167969-4.234375-1.296875-8.617187-5.515625-9.820312zm0 0" data-original="#00ACEA" class="" style="fill:#F2B200" data-old_color="#00ACEA"/></g></g> </svg>
