<?xml version="1.0"?>
<svg xmlns="http://www.w3.org/2000/svg" id="Layer_1" data-name="Layer 1" viewBox="0 0 512 512" width="512" height="512"><title>Burger</title><g id="_Group_2" data-name=" Group 2"><path d="M452.19,271.37v16.61a30,30,0,0,1-30,30H89.81a30,30,0,0,1-30-30V271.37c32.7,0,32.7-30.74,65.4-30.74s32.7,30.74,65.4,30.74,32.7-30.74,65.4-30.74,32.7,30.74,65.4,30.74,32.69-30.74,65.39-30.74S419.5,271.37,452.19,271.37Z" style="fill:#ea5281"/><path d="M452.19,224.02v47.35c-32.69,0-32.69-30.74-65.39-30.74s-32.7,30.74-65.39,30.74-32.7-30.74-65.4-30.74-32.7,30.74-65.4,30.74-32.7-30.74-65.4-30.74-32.7,30.74-65.4,30.74V224.02a30,30,0,0,1,30-30H422.19A30,30,0,0,1,452.19,224.02Z" style="fill:#87e680"/><path d="M452.19,342.94v34.84a92.2,92.2,0,0,1-92.2,92.2H152.01a92.2,92.2,0,0,1-92.2-92.2V342.94Z" style="fill:#f5b955"/><path d="M452.19,134.22v34.84H59.81V134.22a92.2,92.2,0,0,1,92.2-92.2H359.99A92.2,92.2,0,0,1,452.19,134.22Z" style="fill:#f5b955"/></g></svg>
